<svg xmlns="http://www.w3.org/2000/svg" viewBox="0 0 124.979 65.93"><defs><style>.a,.h{fill:#37383a}.b,.c{fill:none;stroke:#fff;stroke-miterlimit:10}.b{opacity:.1}.c{opacity:.05}.f{fill:#ffb72f}.g{fill:#93cc32}.h{opacity:.8}</style></defs><g transform="translate(-6919.106 -16801.397)"><path class="a" d="M7041.306 16867.327h-119.423a2.686 2.686 0 0 1-2.777-2.565v-60.8a2.686 2.686 0 0 1 2.777-2.565h119.423a2.686 2.686 0 0 1 2.777 2.565v60.8a2.686 2.686 0 0 1-2.777 2.565z"/><path class="a" d="M6920.386 16806.07h122.383v56.124h-122.383z"/><path class="b" d="M6929.943 16814.297v40.598M7033.211 16814.297v40.598"/><path class="c" d="M6920.386 16814.297h122.383M6920.386 16818.359h122.383"/><path class="b" d="M6920.386 16827.521h122.383M6920.386 16836.629h122.383M6920.386 16845.789h122.383M6920.386 16854.896h122.383"/><path d="M6920.386 16818.359h21.026l13.38 27.431 13.38-18.269 13.38-9.162 7.312 9.984 6.068 8.285 13.38-9.107" fill="none" stroke="#fff" stroke-miterlimit="10"/><ellipse class="a" cx="1.292" cy="1.372" rx="1.292" ry="1.372" transform="translate(6953.5 16844.42)"/><path d="M6954.791 16844.97a.824.824 0 1 1-.775.823.785.785 0 0 1 .775-.823m0-1.1a1.924 1.924 0 1 0 1.808 1.92 1.89 1.89 0 0 0-1.808-1.92z" fill="#ed4444"/><ellipse class="a" cx="1.292" cy="1.372" rx="1.292" ry="1.372" transform="translate(6993.64 16835.256)"/><path class="f" d="M6994.93 16835.808a.824.824 0 1 1-.775.823.859.859 0 0 1 .775-.823m0-1.1a1.924 1.924 0 1 0 1.808 1.92 1.856 1.856 0 0 0-1.808-1.92z"/><ellipse class="a" cx="1.292" cy="1.372" rx="1.292" ry="1.372" transform="translate(6928.651 16816.988)"/><path class="g" d="M6929.943 16817.539a.824.824 0 1 1-.775.823.82.82 0 0 1 .775-.823m0-1.1a1.924 1.924 0 1 0 1.808 1.92 1.89 1.89 0 0 0-1.808-1.92z"/><ellipse class="a" cx="1.292" cy="1.372" rx="1.292" ry="1.372" transform="translate(7007.02 16826.15)"/><path class="f" d="M7008.311 16826.7a.824.824 0 1 1-.775.823.82.82 0 0 1 .775-.823m0-1.1a1.924 1.924 0 1 0 1.808 1.92 1.856 1.856 0 0 0-1.808-1.92z"/><ellipse class="a" cx="1.292" cy="1.372" rx="1.292" ry="1.372" transform="translate(6966.879 16826.15)"/><path class="f" d="M6968.171 16826.7a.824.824 0 1 1-.775.823.785.785 0 0 1 .775-.823m0-1.1a1.924 1.924 0 1 0 1.808 1.92 1.89 1.89 0 0 0-1.808-1.92z"/><path class="h" d="M6936.504 16862.195h-16.118v-56.124h16.118zM7042.768 16862.195h-15.446v-56.124h15.446z"/><path class="b" d="M7021.743 16814.297v40.433M6941.412 16854.73v-40.433M6954.791 16854.73v-40.433M6968.171 16854.73v-40.433M6981.551 16854.73v-40.433M6994.931 16854.73v-40.433M7008.311 16854.73v-40.433"/><ellipse class="a" cx="1.292" cy="1.372" rx="1.292" ry="1.372" transform="translate(6980.26 16816.988)"/><path class="g" d="M6981.551 16817.539a.824.824 0 1 1-.775.823.82.82 0 0 1 .775-.823m0-1.1a1.924 1.924 0 1 0 1.808 1.92 1.89 1.89 0 0 0-1.808-1.92z"/><ellipse class="a" cx="1.292" cy="1.372" rx="1.292" ry="1.372" transform="translate(6940.12 16816.988)"/><path class="g" d="M6941.411 16817.539a.824.824 0 1 1-.775.823.82.82 0 0 1 .775-.823m0-1.1a1.924 1.924 0 1 0 1.808 1.92 1.89 1.89 0 0 0-1.808-1.92z"/></g></svg>