<svg xmlns="http://www.w3.org/2000/svg" viewBox="0 0 40 40"><path d="M20.2 40h-.4C8.9 40 0 31.1 0 20.2v-.4C0 8.9 8.9 0 19.8 0h.4C31.1 0 40 8.9 40 19.8v.4C40 31.1 31.1 40 20.2 40zm-.4-37.5c-9.5 0-17.3 7.8-17.3 17.3v.4c0 9.5 7.8 17.3 17.3 17.3h.4c9.5 0 17.3-7.8 17.3-17.3v-.4c0-9.5-7.8-17.3-17.3-17.3h-.4z"/><path d="M20.3 28h-.6c-.6 0-1-.5-1-1v-.5c0-.6.5-1 1-1h.6c.6 0 1 .5 1 1v.5c.1.5-.4 1-1 1z"/><path d="M20.1 28.6H20c-1.1 0-1.9-.9-1.9-1.9 0-1.1.9-1.9 1.9-1.9 1.2 0 2.1.9 2.1 1.9-.1 1-1 1.9-2 1.9zm0-2.6c-.5 0-.8.3-.8.7s.3.7.7.7h.1c.4 0 .7-.3.7-.7s-.4-.7-.7-.7zm-1.3-14h2.5v10h-2.5z"/><path d="M18.8 12h2.5v10h-2.5z"/><path d="M18.8 12h2.5v10h-2.5z"/></svg>